<?xml version="1.0" encoding="utf-8"?>
<!-- Generator: Adobe Illustrator 20.1.0, SVG Export Plug-In . SVG Version: 6.00 Build 0)  -->
<svg version="1.1" id="Ebene_1" xmlns="http://www.w3.org/2000/svg" xmlns:xlink="http://www.w3.org/1999/xlink" x="0px" y="0px"
	 viewBox="0 0 60 60" style="enable-background:new 0 0 60 60;" xml:space="preserve">
<style type="text/css">
	.st0{fill:#333333;}
</style>
<path class="st0" d="M54.2,11.8c0.8-0.8,2-1.9,3.4-3c-1.8-2.4-3.9-4.5-6.3-6.3c-1,1.3-2,2.5-2.8,3.3c-6.7,6.7-13,0.8-15.3,3l-9,9
	l1.1,1.1L7.5,32.3c3,3.7,2.2,4.5,9,11.2c6.7,6.7,7.5,6,11.2,9l13.4-17.9l1.1,1.1l9-9C53.4,24.5,47.5,18.5,54.2,11.8z M27.1,20.5
	l0.6,0.6l-3.4,3.4l4.5-2.2l1.1,1.1l-3.1,5.9l4.2-4.8l1.1,1.1L26,34l7.3-7.3l2.2,2.2l-5.3,5.3l6.4-4.2l1.1,1.1l-3.4,5.6l4.5-4.5
	l0.6,0.6L29.1,46.6c-1.1-1.1,0-4.5,0-6.7c-0.3-2-4.5,4.5-6.7,2.2c-2.2-2.2,0.3-2.5,0.3-4.8c0-2.2-2.8-0.6-5-0.6s-1.1-1.1-1.1-3.4
	c0-2.2-5.6-0.6-5.6-0.6L27.1,20.5z"/>
</svg>
