<?xml version="1.0" standalone="no"?>
<!DOCTYPE svg PUBLIC "-//W3C//DTD SVG 20010904//EN"
 "http://www.w3.org/TR/2001/REC-SVG-20010904/DTD/svg10.dtd">
<svg version="1.0" xmlns="http://www.w3.org/2000/svg"
 width="700.000000pt" height="700.000000pt" viewBox="0 0 700.000000 700.000000"
 preserveAspectRatio="xMidYMid meet">
<metadata>
Created by potrace 1.11, written by Peter Selinger 2001-2013
</metadata>
<g transform="translate(0.000000,700.000000) scale(0.100000,-0.100000)"
fill="#000000" stroke="none">
<path d="M3265 6924 c-1064 -83 -2000 -619 -2597 -1489 -310 -453 -496 -945
-574 -1520 -22 -163 -26 -616 -6 -775 81 -661 298 -1205 684 -1717 190 -252
476 -528 743 -719 739 -527 1685 -739 2585 -579 1209 216 2212 1065 2629 2225
218 608 257 1285 111 1920 -161 700 -525 1311 -1076 1804 -504 452 -1150 741
-1854 831 -119 16 -533 28 -645 19z m554 -1432 c166 -277 302 -506 304 -510 1
-4 -94 -169 -211 -366 -118 -197 -212 -360 -210 -362 2 -2 143 58 313 132 171
75 324 141 341 149 l32 13 312 -520 c268 -446 311 -523 302 -542 -12 -26
-1480 -2476 -1495 -2494 -7 -9 -92 124 -323 510 l-313 522 19 31 c102 167 410
689 407 691 -2 2 -143 -57 -313 -132 -170 -74 -323 -141 -341 -149 l-31 -13
-311 519 c-171 285 -311 524 -311 530 0 5 39 74 86 152 48 78 196 324 329 547
133 223 329 549 435 725 105 176 296 494 423 707 177 295 235 384 244 375 6
-7 147 -238 312 -515z"/>
</g>
</svg>
