<?xml version="1.0" encoding="utf-8"?>
<!-- Generator: Adobe Illustrator 20.1.0, SVG Export Plug-In . SVG Version: 6.00 Build 0)  -->
<svg version="1.1" id="Ebene_1" xmlns="http://www.w3.org/2000/svg" xmlns:xlink="http://www.w3.org/1999/xlink" x="0px" y="0px"
	 viewBox="0 0 60 60" style="enable-background:new 0 0 60 60;" xml:space="preserve">
<style type="text/css">
	.st0{fill:#333333;}
</style>
<path class="st0" d="M37,23c8.3,0,15,6.7,15,15s-6.7,15-15,15s-15-6.7-15-15S28.7,23,37,23z M37,25.1c-0.7,0-1.3,0-1.9,0.1
	c-0.1,0.3-0.2,0.6-0.2,0.9c0,1.1-1.1-1.1-2.1,1.1c-1.1,2.1,0,0,0,2.1c0,1.1-1.6,0.3-1.1,0.5c1.1,0.5,1.1,0.5,0,1.6
	c0,0-2.1-1.1-2.1,0s-1.1,1.1-2.1,1.1c-1.1,0,0,2.1-1.1,2.1c-0.8,0-0.4-1.3-1.1-1.9c-0.3,0.6-0.5,1.3-0.7,2c0.7,0.6,0.8,3.2,1.8,4.1
	c1.1-1.1,1.1,0,2.1,0c1.1,0,1.1,0,1.6,1.1c1.1,0,1.6,1.1,2.7,2.1c1.1,1.1,3.2,1.1,3.2,2.1s-1.1,0-1.1,2.1c0,1.1,0,1.1-1.1,1.1
	c-0.7,0-1.3,1.3-1.8,2.2c1.5,0.6,3.2,1,5,1c3.6,0,6.9-1.5,9.2-3.9l-0.6-1.2c0,0,1.3-2.1,0.3-3.2c-1.1-1.1-1.1-2.1-1.1-2.1
	s-2.1,2.1-3.2,1.1c-1.1-1.1-1.1,0-2.1-2.1c-1.1-2.1,1.1-3.2,1.1-3.2s0-2.1,1.1-2.1s2.1-2.1,4.3,0c0,0,1.2-0.8,3-1
	c-0.5-1.3-1.3-2.5-2.2-3.5c-0.2,0.1-0.4,0.2-0.8,0.2c-1.1,0,1.1,2.1,0,2.1s-1.1-1.1-2.1-1.1s-1.1,1.1-2.1,2.1c-1.1,1.1,0,0-1.1-1.1
	s2.1,0,1.1-1.1c-1.1-1.1,1.1-1.1,1.1-2.1c0-0.8,1.3-1,1.9-1.1c-0.6-0.4-1.3-0.8-1.9-1.1c1.1,1.1-1.1,2.1-2.1,2.1s-0.1-1.9,0-3
	C39.4,25.3,38.2,25.1,37,25.1z M24.1,38c0,3.8,1.6,7.2,4.2,9.5l-1-2c-1.1,0-1.6-2.4-1.6-3.5c0-0.9-0.3-1.5,0.1-2.3
	c-1.5-1.5-0.6-0.7-0.6-1.7c0-0.5-0.5-1-1-1.4L24.1,38z M10,13h40v15.7c-0.9-1.2-1.9-2.2-3-3.2V18H13v20h8c0,1,0.1,2,0.3,3H10V13z"/>
</svg>
