<?xml version="1.0" encoding="utf-8"?>
<svg version="1.1" id="Ebene_1" xmlns="http://www.w3.org/2000/svg" xmlns:xlink="http://www.w3.org/1999/xlink" x="0px" y="0px"
	 viewBox="0 0 283.5 283.5" style="enable-background:new 0 0 283.5 283.5;" xml:space="preserve">
<style type="text/css">
	.st0{fill:#DDDDDD;}
	.st1{fill:#FFFFFF;}
</style>
<g>
	<polygon class="st0" points="62,141.7 188.4,86.6 221.5,141.7 95.1,196.9 	"/>
	<polygon class="st1" points="216.5,133.4 211.5,125.1 206.5,116.8 201.6,108.5 196.6,100.2 191.6,91.9 188.4,86.6 182.4,96.6 
		175.6,107.9 168.8,119.2 162,130.4 155.3,141.7 148.5,153 141.7,164.3 135,175.6 128.2,186.9 121.4,198.2 114.6,209.4 108.6,219.5 
		111.8,224.8 116.8,233.1 121.8,241.4 126.8,249.7 131.8,258 136.7,266.4 141.7,274.7 146.7,266.4 151.7,258 156.7,249.7 
		161.7,241.4 166.7,233.1 171.6,224.8 176.6,216.5 181.6,208.2 186.6,199.9 191.6,191.6 196.6,183.3 201.6,175 206.5,166.7 
		211.5,158.3 216.5,150 221.5,141.7 	"/>
	<polygon class="st1" points="86.9,183.3 91.9,191.6 95.1,196.9 174.8,64 171.6,58.7 166.7,50.3 161.7,42 156.7,33.7 151.7,25.4 
		146.7,17.1 141.7,8.8 136.7,17.1 131.8,25.4 126.8,33.7 121.8,42 116.8,50.3 111.8,58.7 106.8,67 101.9,75.3 96.9,83.6 91.9,91.9 
		86.9,100.2 81.9,108.5 76.9,116.8 71.9,125.1 67,133.4 62,141.7 67,150 71.9,158.3 76.9,166.7 81.9,175 	"/>
</g>
</svg>
